<svg preserveAspectRatio="none" overflow="visible" style="display: block;" width="13.9948" height="13.9948" viewBox="0 0 13.9948 13.9948" fill="none" xmlns="http://www.w3.org/2000/svg">
<g id="Icon" clip-path="url(#clip0_0_4)">
<path id="Vector" d="M9.91287 12.2448V11.0786C9.91287 10.46 9.66713 9.86668 9.22971 9.42926C8.79229 8.99184 8.19902 8.74609 7.58041 8.74609H2.91547C2.29687 8.74609 1.70359 8.99184 1.26617 9.42926C0.828749 9.86668 0.583008 10.46 0.583008 11.0786V12.2448" stroke="#22C55E" stroke-width="0.874675" stroke-linecap="round" stroke-linejoin="round"/>
<path id="Vector_2" d="M5.24799 6.41493C6.53618 6.41493 7.58046 5.37065 7.58046 4.08247C7.58046 2.79428 6.53618 1.75 5.24799 1.75C3.95981 1.75 2.91553 2.79428 2.91553 4.08247C2.91553 5.37065 3.95981 6.41493 5.24799 6.41493Z" stroke="#22C55E" stroke-width="0.874675" stroke-linecap="round" stroke-linejoin="round"/>
<path id="Vector_3" d="M13.4117 12.2452V11.0789C13.4113 10.5621 13.2393 10.0601 12.9227 9.65164C12.6061 9.24319 12.1627 8.95147 11.6624 8.82227" stroke="#22C55E" stroke-width="0.874675" stroke-linecap="round" stroke-linejoin="round"/>
<path id="Vector_4" d="M9.32983 1.82422C9.83156 1.95268 10.2763 2.24447 10.5938 2.65359C10.9114 3.06271 11.0838 3.56589 11.0838 4.0838C11.0838 4.6017 10.9114 5.10488 10.5938 5.514C10.2763 5.92312 9.83156 6.21491 9.32983 6.34337" stroke="#22C55E" stroke-width="0.874675" stroke-linecap="round" stroke-linejoin="round"/>
</g>
<defs>
<clipPath id="clip0_0_4">
<rect width="13.9948" height="13.9948" fill="white"/>
</clipPath>
</defs>
</svg>
