<svg preserveAspectRatio="none" overflow="visible" style="display: block;" width="17.9961" height="17.9961" viewBox="0 0 17.9961 17.9961" fill="none" xmlns="http://www.w3.org/2000/svg">
<g id="Icon" clip-path="url(#clip0_0_36)">
<path id="Vector" d="M8.99805 16.4964C13.1393 16.4964 16.4964 13.1393 16.4964 8.99805C16.4964 4.85681 13.1393 1.49967 8.99805 1.49967C4.85681 1.49967 1.49967 4.85681 1.49967 8.99805C1.49967 13.1393 4.85681 16.4964 8.99805 16.4964Z" stroke="white" stroke-width="1.12476" stroke-linecap="round" stroke-linejoin="round"/>
<path id="Vector_2" d="M8.99805 11.9974C10.6545 11.9974 11.9974 10.6545 11.9974 8.99805C11.9974 7.34155 10.6545 5.9987 8.99805 5.9987C7.34155 5.9987 5.9987 7.34155 5.9987 8.99805C5.9987 10.6545 7.34155 11.9974 8.99805 11.9974Z" stroke="white" stroke-width="1.12476" stroke-linecap="round" stroke-linejoin="round"/>
<path id="Vector_3" d="M3.6967 3.6967L6.87601 6.87601" stroke="white" stroke-width="1.12476" stroke-linecap="round" stroke-linejoin="round"/>
<path id="Vector_4" d="M11.1201 11.1201L14.2994 14.2994" stroke="white" stroke-width="1.12476" stroke-linecap="round" stroke-linejoin="round"/>
</g>
<defs>
<clipPath id="clip0_0_36">
<rect width="17.9961" height="17.9961" fill="white"/>
</clipPath>
</defs>
</svg>
